<svg width="36" height="36" viewBox="0 0 36 36" fill="none" xmlns="http://www.w3.org/2000/svg">
<g id="linkedin-icon-2 1" clip-path="url(#clip0_1153_173)">
<g id="Group">
<path id="Vector" d="M0 2.64049C0 1.22277 1.19166 0.0720215 2.66062 0.0720215H33.3394C34.8089 0.0720215 36 1.22277 36 2.64049V33.36C36 34.7781 34.8089 35.928 33.3394 35.928H2.66062C1.1918 35.928 0 34.7782 0 33.3604V2.64007V2.64049Z" fill="#0077B5"/>
<path id="Vector_2" d="M10.9399 30.0786V13.9361H5.55288V30.0786H10.9405H10.9399ZM8.24754 11.7325C10.1257 11.7325 11.295 10.493 11.295 8.94389C11.2599 7.3595 10.1257 6.15454 8.28326 6.15454C6.43952 6.15454 5.23535 7.3595 5.23535 8.94375C5.23535 10.4928 6.40423 11.7324 8.21224 11.7324H8.24712L8.24754 11.7325ZM13.9218 30.0786H19.3084V21.0649C19.3084 20.5831 19.3436 20.1 19.4859 19.7559C19.8751 18.7915 20.7615 17.7933 22.25 17.7933C24.1988 17.7933 24.9788 19.2735 24.9788 21.4438V30.0786H30.3653V20.823C30.3653 15.8649 27.7081 13.5577 24.1639 13.5577C21.2582 13.5577 19.982 15.1753 19.273 16.277H19.3088V13.9367H13.922C13.9924 15.451 13.9216 30.0792 13.9216 30.0792L13.9218 30.0786Z" fill="white"/>
</g>
</g>
<defs>
<clipPath id="clip0_1153_173">
<rect width="36" height="36" fill="white"/>
</clipPath>
</defs>
</svg>
